# MagicaVoxel @ ephtracy

# material
mtllib AX_003.mtl
usemtl palette

# normals
vn -1 0 0
vn 1 0 0
vn 0 0 1
vn 0 0 -1
vn 0 -1 0
vn 0 1 0

# texcoords
vt 0.443359 0.5
vt 0.451172 0.5
vt 0.458984 0.5
vt 0.466797 0.5
vt 0.541016 0.5
vt 0.544922 0.5

# verts
v -8.5 0 -1
v -8.5 0 -2
v -8.5 0 -3
v -8.5 0 -4
v -8.5 0 -5
v -8.5 0 -8
v -8.5 0 -9
v -8.5 0 -10
v -8.5 0 -11
v -8.5 0 -12
v -8.5 3 -1
v -8.5 3 -2
v -8.5 3 -3
v -8.5 3 -4
v -8.5 3 -5
v -8.5 3 -8
v -8.5 3 -9
v -8.5 3 -10
v -8.5 3 -11
v -8.5 3 -12
v -6.5 1 -11
v -6.5 1 -12
v -6.5 2 -11
v -6.5 2 -12
v -4.5 0 12
v -4.5 0 -2
v -4.5 0 -3
v -4.5 0 -4
v -4.5 0 -5
v -4.5 0 -8
v -4.5 0 -9
v -4.5 0 -10
v -4.5 0 -11
v -4.5 0 -12
v -4.5 1 12
v -4.5 1 10
v -4.5 1 -2
v -4.5 1 -3
v -4.5 1 -4
v -4.5 1 -5
v -4.5 1 -9
v -4.5 1 -10
v -4.5 1 -11
v -4.5 1 -12
v -4.5 2 -2
v -4.5 2 -3
v -4.5 2 -4
v -4.5 2 -5
v -4.5 2 -9
v -4.5 2 -10
v -4.5 2 -11
v -4.5 2 -12
v -4.5 3 12
v -4.5 3 10
v -4.5 3 -2
v -4.5 3 -3
v -4.5 3 -4
v -4.5 4 12
v -4.5 4 -2
v -4.5 4 -3
v -4.5 4 -4
v -4.5 4 -5
v -4.5 4 -8
v -4.5 4 -9
v -4.5 4 -10
v -4.5 4 -11
v -4.5 4 -12
v -3.5 4 -6
v -3.5 4 -8
v -3.5 4 -9
v -3.5 4 -10
v -3.5 4 -11
v -3.5 4 -12
v -3.5 7 -6
v -3.5 7 -7
v -3.5 8 -7
v -3.5 8 -8
v -3.5 9 -8
v -3.5 9 -9
v -3.5 9 -10
v -3.5 9 -11
v -3.5 9 -12
v 2.5 5 -6
v 2.5 5 -8
v 2.5 5 -9
v 2.5 5 -10
v 2.5 5 -11
v 2.5 5 -12
v 2.5 7 -6
v 2.5 7 -7
v 2.5 8 -7
v 2.5 8 -8
v 2.5 9 -8
v 2.5 9 -9
v 2.5 9 -10
v 2.5 9 -11
v 2.5 9 -12
v 3.5 1 -11
v 3.5 1 -12
v 3.5 3 -11
v 3.5 3 -12
v 5.5 0 -1
v 5.5 0 -2
v 5.5 0 -3
v 5.5 0 -4
v 5.5 0 -5
v 5.5 0 -8
v 5.5 0 -9
v 5.5 0 -10
v 5.5 0 -11
v 5.5 0 -12
v 5.5 1 -2
v 5.5 1 -3
v 5.5 1 -4
v 5.5 1 -5
v 5.5 1 -9
v 5.5 1 -10
v 5.5 1 -11
v 5.5 1 -12
v 5.5 2 -2
v 5.5 2 -3
v 5.5 2 -4
v 5.5 2 -5
v 5.5 2 -9
v 5.5 2 -10
v 5.5 2 -11
v 5.5 2 -12
v 5.5 3 -1
v 5.5 3 -2
v 5.5 3 -3
v 5.5 3 -4
v 5.5 3 -5
v 5.5 3 -8
v 5.5 3 -9
v 5.5 3 -10
v 5.5 3 -11
v 5.5 3 -12
v 7.5 1 -11
v 7.5 1 -12
v 7.5 2 -11
v 7.5 2 -12
v -7.5 1 -11
v -7.5 1 -12
v -7.5 2 -11
v -7.5 2 -12
v -5.5 0 -1
v -5.5 0 -2
v -5.5 0 -3
v -5.5 0 -4
v -5.5 0 -5
v -5.5 0 -8
v -5.5 0 -9
v -5.5 0 -10
v -5.5 0 -11
v -5.5 0 -12
v -5.5 1 -2
v -5.5 1 -3
v -5.5 1 -4
v -5.5 1 -5
v -5.5 1 -9
v -5.5 1 -10
v -5.5 1 -11
v -5.5 1 -12
v -5.5 2 -2
v -5.5 2 -3
v -5.5 2 -4
v -5.5 2 -5
v -5.5 2 -9
v -5.5 2 -10
v -5.5 2 -11
v -5.5 2 -12
v -5.5 3 -1
v -5.5 3 -2
v -5.5 3 -3
v -5.5 3 -4
v -5.5 3 -5
v -5.5 3 -8
v -5.5 3 -9
v -5.5 3 -10
v -5.5 3 -11
v -5.5 3 -12
v -3.5 1 -11
v -3.5 1 -12
v -3.5 3 -11
v -3.5 3 -12
v -2.5 5 -6
v -2.5 5 -8
v -2.5 5 -9
v -2.5 5 -10
v -2.5 5 -11
v -2.5 5 -12
v -2.5 7 -6
v -2.5 7 -7
v -2.5 8 -7
v -2.5 8 -8
v -2.5 9 -8
v -2.5 9 -9
v -2.5 9 -10
v -2.5 9 -11
v -2.5 9 -12
v 3.5 4 -6
v 3.5 4 -8
v 3.5 4 -9
v 3.5 4 -10
v 3.5 4 -11
v 3.5 4 -12
v 3.5 7 -6
v 3.5 7 -7
v 3.5 8 -7
v 3.5 8 -8
v 3.5 9 -8
v 3.5 9 -9
v 3.5 9 -10
v 3.5 9 -11
v 3.5 9 -12
v 4.5 0 12
v 4.5 0 -2
v 4.5 0 -3
v 4.5 0 -4
v 4.5 0 -5
v 4.5 0 -8
v 4.5 0 -9
v 4.5 0 -10
v 4.5 0 -11
v 4.5 0 -12
v 4.5 1 12
v 4.5 1 10
v 4.5 1 -2
v 4.5 1 -3
v 4.5 1 -4
v 4.5 1 -5
v 4.5 1 -9
v 4.5 1 -10
v 4.5 1 -11
v 4.5 1 -12
v 4.5 2 -2
v 4.5 2 -3
v 4.5 2 -4
v 4.5 2 -5
v 4.5 2 -9
v 4.5 2 -10
v 4.5 2 -11
v 4.5 2 -12
v 4.5 3 12
v 4.5 3 10
v 4.5 3 -2
v 4.5 3 -3
v 4.5 3 -4
v 4.5 4 12
v 4.5 4 -2
v 4.5 4 -3
v 4.5 4 -4
v 4.5 4 -5
v 4.5 4 -8
v 4.5 4 -9
v 4.5 4 -10
v 4.5 4 -11
v 4.5 4 -12
v 6.5 1 -11
v 6.5 1 -12
v 6.5 2 -11
v 6.5 2 -12
v 8.5 0 -1
v 8.5 0 -2
v 8.5 0 -3
v 8.5 0 -4
v 8.5 0 -5
v 8.5 0 -8
v 8.5 0 -9
v 8.5 0 -10
v 8.5 0 -11
v 8.5 0 -12
v 8.5 3 -1
v 8.5 3 -2
v 8.5 3 -3
v 8.5 3 -4
v 8.5 3 -5
v 8.5 3 -8
v 8.5 3 -9
v 8.5 3 -10
v 8.5 3 -11
v 8.5 3 -12
v -4.5 0 12
v -4.5 1 12
v -4.5 3 12
v -4.5 4 12
v -1.5 0 12
v -1.5 1 12
v -1.5 3 12
v -1.5 4 12
v 1.5 0 12
v 1.5 1 12
v 1.5 3 12
v 1.5 4 12
v 4.5 0 12
v 4.5 1 12
v 4.5 3 12
v 4.5 4 12
v -8.5 0 -1
v -8.5 3 -1
v -5.5 0 -1
v -5.5 3 -1
v 5.5 0 -1
v 5.5 3 -1
v 8.5 0 -1
v 8.5 3 -1
v -5.5 1 -2
v -5.5 2 -2
v -4.5 1 -2
v -4.5 2 -2
v 4.5 1 -2
v 4.5 2 -2
v 5.5 1 -2
v 5.5 2 -2
v -3.5 4 -6
v -3.5 7 -6
v -2.5 5 -6
v -2.5 7 -6
v -1.5 4 -6
v -1.5 5 -6
v -0.5 4 -6
v -0.5 5 -6
v 0.5 4 -6
v 0.5 5 -6
v 1.5 4 -6
v 1.5 5 -6
v 2.5 5 -6
v 2.5 7 -6
v 3.5 4 -6
v 3.5 7 -6
v -3.5 7 -7
v -3.5 8 -7
v -2.5 7 -7
v -2.5 8 -7
v 2.5 7 -7
v 2.5 8 -7
v 3.5 7 -7
v 3.5 8 -7
v -3.5 8 -8
v -3.5 9 -8
v -2.5 8 -8
v -2.5 9 -8
v 2.5 8 -8
v 2.5 9 -8
v 3.5 8 -8
v 3.5 9 -8
v -5.5 1 -9
v -5.5 2 -9
v -4.5 1 -9
v -4.5 2 -9
v 4.5 1 -9
v 4.5 2 -9
v 5.5 1 -9
v 5.5 2 -9
v -5.5 1 -5
v -5.5 2 -5
v -4.5 1 -5
v -4.5 2 -5
v 4.5 1 -5
v 4.5 2 -5
v 5.5 1 -5
v 5.5 2 -5
v -7.5 1 -11
v -7.5 2 -11
v -6.5 1 -11
v -6.5 2 -11
v -3.5 1 -11
v -3.5 3 -11
v 3.5 1 -11
v 3.5 3 -11
v 6.5 1 -11
v 6.5 2 -11
v 7.5 1 -11
v 7.5 2 -11
v -8.5 0 -12
v -8.5 3 -12
v -7.5 1 -12
v -7.5 2 -12
v -6.5 1 -12
v -6.5 2 -12
v -5.5 0 -12
v -5.5 1 -12
v -5.5 2 -12
v -5.5 3 -12
v -4.5 0 -12
v -4.5 1 -12
v -4.5 2 -12
v -4.5 4 -12
v -3.5 1 -12
v -3.5 3 -12
v -3.5 4 -12
v -3.5 9 -12
v -2.5 5 -12
v -2.5 9 -12
v 2.5 5 -12
v 2.5 9 -12
v 3.5 1 -12
v 3.5 3 -12
v 3.5 4 -12
v 3.5 9 -12
v 4.5 0 -12
v 4.5 1 -12
v 4.5 2 -12
v 4.5 4 -12
v 5.5 0 -12
v 5.5 1 -12
v 5.5 2 -12
v 5.5 3 -12
v 6.5 1 -12
v 6.5 2 -12
v 7.5 1 -12
v 7.5 2 -12
v 8.5 0 -12
v 8.5 3 -12
v -4.5 0 12
v -1.5 0 12
v 1.5 0 12
v 4.5 0 12
v -8.5 0 -1
v -5.5 0 -1
v 5.5 0 -1
v 8.5 0 -1
v -8.5 0 -2
v -5.5 0 -2
v -4.5 0 -2
v -1.5 0 -2
v 1.5 0 -2
v 4.5 0 -2
v 5.5 0 -2
v 8.5 0 -2
v -8.5 0 -3
v -5.5 0 -3
v -4.5 0 -3
v 4.5 0 -3
v 5.5 0 -3
v 8.5 0 -3
v -8.5 0 -4
v -5.5 0 -4
v -4.5 0 -4
v 4.5 0 -4
v 5.5 0 -4
v 8.5 0 -4
v -8.5 0 -5
v -5.5 0 -5
v -4.5 0 -5
v 4.5 0 -5
v 5.5 0 -5
v 8.5 0 -5
v -8.5 0 -8
v -5.5 0 -8
v -4.5 0 -8
v 4.5 0 -8
v 5.5 0 -8
v 8.5 0 -8
v -8.5 0 -9
v -5.5 0 -9
v -4.5 0 -9
v 4.5 0 -9
v 5.5 0 -9
v 8.5 0 -9
v -8.5 0 -10
v -5.5 0 -10
v -4.5 0 -10
v 4.5 0 -10
v 5.5 0 -10
v 8.5 0 -10
v -8.5 0 -11
v -5.5 0 -11
v -4.5 0 -11
v 4.5 0 -11
v 5.5 0 -11
v 8.5 0 -11
v -8.5 0 -12
v -5.5 0 -12
v -4.5 0 -12
v 4.5 0 -12
v 5.5 0 -12
v 8.5 0 -12
v -5.5 1 -2
v -4.5 1 -2
v 4.5 1 -2
v 5.5 1 -2
v -5.5 1 -3
v -4.5 1 -3
v 4.5 1 -3
v 5.5 1 -3
v -5.5 1 -4
v -4.5 1 -4
v 4.5 1 -4
v 5.5 1 -4
v -5.5 1 -5
v -4.5 1 -5
v 4.5 1 -5
v 5.5 1 -5
v -5.5 1 -9
v -4.5 1 -9
v 4.5 1 -9
v 5.5 1 -9
v -5.5 1 -10
v -4.5 1 -10
v 4.5 1 -10
v 5.5 1 -10
v -5.5 1 -11
v -4.5 1 -11
v 4.5 1 -11
v 5.5 1 -11
v -5.5 1 -12
v -4.5 1 -12
v 4.5 1 -12
v 5.5 1 -12
v -7.5 2 -11
v -6.5 2 -11
v 6.5 2 -11
v 7.5 2 -11
v -7.5 2 -12
v -6.5 2 -12
v 6.5 2 -12
v 7.5 2 -12
v -3.5 3 -11
v 3.5 3 -11
v -3.5 3 -12
v 3.5 3 -12
v -7.5 1 -11
v -6.5 1 -11
v -3.5 1 -11
v 3.5 1 -11
v 6.5 1 -11
v 7.5 1 -11
v -7.5 1 -12
v -6.5 1 -12
v -3.5 1 -12
v 3.5 1 -12
v 6.5 1 -12
v 7.5 1 -12
v -5.5 2 -2
v -4.5 2 -2
v 4.5 2 -2
v 5.5 2 -2
v -5.5 2 -3
v -4.5 2 -3
v 4.5 2 -3
v 5.5 2 -3
v -5.5 2 -4
v -4.5 2 -4
v 4.5 2 -4
v 5.5 2 -4
v -5.5 2 -5
v -4.5 2 -5
v 4.5 2 -5
v 5.5 2 -5
v -5.5 2 -9
v -4.5 2 -9
v 4.5 2 -9
v 5.5 2 -9
v -5.5 2 -10
v -4.5 2 -10
v 4.5 2 -10
v 5.5 2 -10
v -5.5 2 -11
v -4.5 2 -11
v 4.5 2 -11
v 5.5 2 -11
v -5.5 2 -12
v -4.5 2 -12
v 4.5 2 -12
v 5.5 2 -12
v -8.5 3 -1
v -5.5 3 -1
v 5.5 3 -1
v 8.5 3 -1
v -8.5 3 -2
v -5.5 3 -2
v 5.5 3 -2
v 8.5 3 -2
v -8.5 3 -3
v -5.5 3 -3
v 5.5 3 -3
v 8.5 3 -3
v -8.5 3 -4
v -5.5 3 -4
v 5.5 3 -4
v 8.5 3 -4
v -8.5 3 -5
v -5.5 3 -5
v 5.5 3 -5
v 8.5 3 -5
v -8.5 3 -8
v -5.5 3 -8
v 5.5 3 -8
v 8.5 3 -8
v -8.5 3 -9
v -5.5 3 -9
v 5.5 3 -9
v 8.5 3 -9
v -8.5 3 -10
v -5.5 3 -10
v 5.5 3 -10
v 8.5 3 -10
v -8.5 3 -11
v -5.5 3 -11
v 5.5 3 -11
v 8.5 3 -11
v -8.5 3 -12
v -5.5 3 -12
v 5.5 3 -12
v 8.5 3 -12
v -4.5 4 12
v -1.5 4 12
v 1.5 4 12
v 4.5 4 12
v -0.5 4 11
v 0.5 4 11
v -4.5 4 -2
v -1.5 4 -2
v 1.5 4 -2
v 4.5 4 -2
v -4.5 4 -3
v -0.5 4 -3
v 0.5 4 -3
v 4.5 4 -3
v -4.5 4 -4
v 4.5 4 -4
v -4.5 4 -5
v 4.5 4 -5
v -3.5 4 -6
v -1.5 4 -6
v -0.5 4 -6
v 0.5 4 -6
v 1.5 4 -6
v 3.5 4 -6
v -4.5 4 -8
v -3.5 4 -8
v 3.5 4 -8
v 4.5 4 -8
v -4.5 4 -9
v -3.5 4 -9
v 3.5 4 -9
v 4.5 4 -9
v -4.5 4 -10
v -3.5 4 -10
v 3.5 4 -10
v 4.5 4 -10
v -4.5 4 -11
v -3.5 4 -11
v 3.5 4 -11
v 4.5 4 -11
v -4.5 4 -12
v -3.5 4 -12
v 3.5 4 -12
v 4.5 4 -12
v -2.5 5 -6
v -1.5 5 -6
v -0.5 5 -6
v 0.5 5 -6
v 1.5 5 -6
v 2.5 5 -6
v -2.5 5 -8
v 2.5 5 -8
v -2.5 5 -9
v -1.5 5 -9
v -0.5 5 -9
v 0.5 5 -9
v 1.5 5 -9
v 2.5 5 -9
v -2.5 5 -10
v 2.5 5 -10
v -2.5 5 -11
v 2.5 5 -11
v -2.5 5 -12
v 2.5 5 -12
v -3.5 7 -6
v -2.5 7 -6
v 2.5 7 -6
v 3.5 7 -6
v -3.5 7 -7
v -2.5 7 -7
v 2.5 7 -7
v 3.5 7 -7
v -3.5 8 -7
v -2.5 8 -7
v 2.5 8 -7
v 3.5 8 -7
v -3.5 8 -8
v -2.5 8 -8
v 2.5 8 -8
v 3.5 8 -8
v -3.5 9 -8
v -2.5 9 -8
v 2.5 9 -8
v 3.5 9 -8
v -3.5 9 -9
v -2.5 9 -9
v 2.5 9 -9
v 3.5 9 -9
v -3.5 9 -10
v -2.5 9 -10
v 2.5 9 -10
v 3.5 9 -10
v -3.5 9 -11
v -2.5 9 -11
v 2.5 9 -11
v 3.5 9 -11
v -3.5 9 -12
v -2.5 9 -12
v 2.5 9 -12
v 3.5 9 -12

# faces
f 11/3/1 2/3/1 1/3/1
f 12/1/1 3/1/1 2/1/1
f 12/3/1 2/3/1 11/3/1
f 13/3/1 4/3/1 3/3/1
f 13/1/1 3/1/1 12/1/1
f 14/1/1 5/1/1 4/1/1
f 14/3/1 4/3/1 13/3/1
f 15/2/1 6/2/1 5/2/1
f 15/1/1 5/1/1 14/1/1
f 16/1/1 7/1/1 6/1/1
f 16/2/1 6/2/1 15/2/1
f 17/6/1 8/6/1 7/6/1
f 17/1/1 7/1/1 16/1/1
f 18/2/1 9/2/1 8/2/1
f 18/6/1 8/6/1 17/6/1
f 19/6/1 10/6/1 9/6/1
f 19/2/1 9/2/1 18/2/1
f 20/6/1 10/6/1 19/6/1
f 23/6/1 22/6/1 21/6/1
f 24/6/1 22/6/1 23/6/1
f 35/2/1 26/2/1 25/2/1
f 36/2/1 26/2/1 35/2/1
f 37/1/1 27/1/1 26/1/1
f 37/2/1 26/2/1 36/2/1
f 38/3/1 28/3/1 27/3/1
f 38/1/1 27/1/1 37/1/1
f 39/1/1 29/1/1 28/1/1
f 39/3/1 28/3/1 38/3/1
f 40/2/1 30/2/1 29/2/1
f 40/1/1 29/1/1 39/1/1
f 41/1/1 31/1/1 30/1/1
f 41/6/1 32/6/1 31/6/1
f 42/2/1 33/2/1 32/2/1
f 42/6/1 32/6/1 41/6/1
f 43/6/1 34/6/1 33/6/1
f 43/2/1 33/2/1 42/2/1
f 44/6/1 34/6/1 43/6/1
f 45/1/1 37/1/1 36/1/1
f 48/2/1 30/2/1 40/2/1
f 49/1/1 41/1/1 30/1/1
f 53/5/1 36/5/1 35/5/1
f 54/1/1 45/1/1 36/1/1
f 54/5/1 36/5/1 53/5/1
f 54/1/1 46/1/1 45/1/1
f 55/1/1 46/1/1 54/1/1
f 56/2/1 47/2/1 46/2/1
f 56/1/1 46/1/1 55/1/1
f 57/1/1 48/1/1 47/1/1
f 57/2/1 47/2/1 56/2/1
f 58/2/1 55/2/1 54/2/1
f 58/2/1 54/2/1 53/2/1
f 59/1/1 56/1/1 55/1/1
f 59/2/1 55/2/1 58/2/1
f 60/3/1 57/3/1 56/3/1
f 60/1/1 56/1/1 59/1/1
f 61/1/1 48/1/1 57/1/1
f 61/3/1 57/3/1 60/3/1
f 62/2/1 30/2/1 48/2/1
f 62/1/1 48/1/1 61/1/1
f 63/1/1 49/1/1 30/1/1
f 63/2/1 30/2/1 62/2/1
f 64/6/1 50/6/1 49/6/1
f 64/1/1 49/1/1 63/1/1
f 65/2/1 51/2/1 50/2/1
f 65/6/1 50/6/1 64/6/1
f 66/6/1 52/6/1 51/6/1
f 66/2/1 51/2/1 65/2/1
f 67/6/1 52/6/1 66/6/1
f 74/2/1 69/2/1 68/2/1
f 75/2/1 69/2/1 74/2/1
f 76/2/1 69/2/1 75/2/1
f 77/1/1 70/1/1 69/1/1
f 77/2/1 69/2/1 76/2/1
f 78/1/1 70/1/1 77/1/1
f 79/6/1 71/6/1 70/6/1
f 79/1/1 70/1/1 78/1/1
f 80/2/1 72/2/1 71/2/1
f 80/6/1 71/6/1 79/6/1
f 81/6/1 73/6/1 72/6/1
f 81/2/1 72/2/1 80/2/1
f 82/6/1 73/6/1 81/6/1
f 89/2/1 84/2/1 83/2/1
f 90/2/1 84/2/1 89/2/1
f 91/2/1 84/2/1 90/2/1
f 92/1/1 85/1/1 84/1/1
f 92/2/1 84/2/1 91/2/1
f 93/1/1 85/1/1 92/1/1
f 94/6/1 86/6/1 85/6/1
f 94/1/1 85/1/1 93/1/1
f 95/2/1 87/2/1 86/2/1
f 95/6/1 86/6/1 94/6/1
f 96/6/1 88/6/1 87/6/1
f 96/2/1 87/2/1 95/2/1
f 97/6/1 88/6/1 96/6/1
f 100/6/1 99/6/1 98/6/1
f 101/6/1 99/6/1 100/6/1
f 112/3/1 103/3/1 102/3/1
f 112/1/1 104/1/1 103/1/1
f 113/3/1 105/3/1 104/3/1
f 113/1/1 104/1/1 112/1/1
f 114/1/1 106/1/1 105/1/1
f 114/3/1 105/3/1 113/3/1
f 115/2/1 107/2/1 106/2/1
f 115/1/1 106/1/1 114/1/1
f 116/1/1 108/1/1 107/1/1
f 116/6/1 109/6/1 108/6/1
f 117/2/1 110/2/1 109/2/1
f 117/6/1 109/6/1 116/6/1
f 118/6/1 111/6/1 110/6/1
f 118/2/1 110/2/1 117/2/1
f 119/6/1 111/6/1 118/6/1
f 120/3/1 112/3/1 102/3/1
f 123/2/1 107/2/1 115/2/1
f 124/1/1 116/1/1 107/1/1
f 128/3/1 120/3/1 102/3/1
f 129/1/1 121/1/1 120/1/1
f 129/3/1 120/3/1 128/3/1
f 130/3/1 122/3/1 121/3/1
f 130/1/1 121/1/1 129/1/1
f 131/1/1 123/1/1 122/1/1
f 131/3/1 122/3/1 130/3/1
f 132/2/1 107/2/1 123/2/1
f 132/1/1 123/1/1 131/1/1
f 133/1/1 124/1/1 107/1/1
f 133/2/1 107/2/1 132/2/1
f 134/6/1 125/6/1 124/6/1
f 134/1/1 124/1/1 133/1/1
f 135/2/1 126/2/1 125/2/1
f 135/6/1 125/6/1 134/6/1
f 136/6/1 127/6/1 126/6/1
f 136/2/1 126/2/1 135/2/1
f 137/6/1 127/6/1 136/6/1
f 140/6/1 139/6/1 138/6/1
f 141/6/1 139/6/1 140/6/1
f 142/6/2 143/6/2 144/6/2
f 144/6/2 143/6/2 145/6/2
f 146/3/2 147/3/2 156/3/2
f 147/1/2 148/1/2 156/1/2
f 148/3/2 149/3/2 157/3/2
f 156/1/2 148/1/2 157/1/2
f 149/1/2 150/1/2 158/1/2
f 157/3/2 149/3/2 158/3/2
f 150/2/2 151/2/2 159/2/2
f 158/1/2 150/1/2 159/1/2
f 151/1/2 152/1/2 160/1/2
f 152/6/2 153/6/2 160/6/2
f 153/2/2 154/2/2 161/2/2
f 160/6/2 153/6/2 161/6/2
f 154/6/2 155/6/2 162/6/2
f 161/2/2 154/2/2 162/2/2
f 162/6/2 155/6/2 163/6/2
f 146/3/2 156/3/2 164/3/2
f 159/2/2 151/2/2 167/2/2
f 151/1/2 160/1/2 168/1/2
f 146/3/2 164/3/2 172/3/2
f 164/1/2 165/1/2 173/1/2
f 172/3/2 164/3/2 173/3/2
f 165/3/2 166/3/2 174/3/2
f 173/1/2 165/1/2 174/1/2
f 166/1/2 167/1/2 175/1/2
f 174/3/2 166/3/2 175/3/2
f 167/2/2 151/2/2 176/2/2
f 175/1/2 167/1/2 176/1/2
f 151/1/2 168/1/2 177/1/2
f 176/2/2 151/2/2 177/2/2
f 168/6/2 169/6/2 178/6/2
f 177/1/2 168/1/2 178/1/2
f 169/2/2 170/2/2 179/2/2
f 178/6/2 169/6/2 179/6/2
f 170/6/2 171/6/2 180/6/2
f 179/2/2 170/2/2 180/2/2
f 180/6/2 171/6/2 181/6/2
f 182/6/2 183/6/2 184/6/2
f 184/6/2 183/6/2 185/6/2
f 186/2/2 187/2/2 192/2/2
f 192/2/2 187/2/2 193/2/2
f 193/2/2 187/2/2 194/2/2
f 187/1/2 188/1/2 195/1/2
f 194/2/2 187/2/2 195/2/2
f 195/1/2 188/1/2 196/1/2
f 188/6/2 189/6/2 197/6/2
f 196/1/2 188/1/2 197/1/2
f 189/2/2 190/2/2 198/2/2
f 197/6/2 189/6/2 198/6/2
f 190/6/2 191/6/2 199/6/2
f 198/2/2 190/2/2 199/2/2
f 199/6/2 191/6/2 200/6/2
f 201/2/2 202/2/2 207/2/2
f 207/2/2 202/2/2 208/2/2
f 208/2/2 202/2/2 209/2/2
f 202/1/2 203/1/2 210/1/2
f 209/2/2 202/2/2 210/2/2
f 210/1/2 203/1/2 211/1/2
f 203/6/2 204/6/2 212/6/2
f 211/1/2 203/1/2 212/1/2
f 204/2/2 205/2/2 213/2/2
f 212/6/2 204/6/2 213/6/2
f 205/6/2 206/6/2 214/6/2
f 213/2/2 205/2/2 214/2/2
f 214/6/2 206/6/2 215/6/2
f 216/2/2 217/2/2 226/2/2
f 226/2/2 217/2/2 227/2/2
f 217/1/2 218/1/2 228/1/2
f 227/2/2 217/2/2 228/2/2
f 218/3/2 219/3/2 229/3/2
f 228/1/2 218/1/2 229/1/2
f 219/1/2 220/1/2 230/1/2
f 229/3/2 219/3/2 230/3/2
f 220/2/2 221/2/2 231/2/2
f 230/1/2 220/1/2 231/1/2
f 221/1/2 222/1/2 232/1/2
f 222/6/2 223/6/2 232/6/2
f 223/2/2 224/2/2 233/2/2
f 232/6/2 223/6/2 233/6/2
f 224/6/2 225/6/2 234/6/2
f 233/2/2 224/2/2 234/2/2
f 234/6/2 225/6/2 235/6/2
f 227/1/2 228/1/2 236/1/2
f 231/2/2 221/2/2 239/2/2
f 221/1/2 232/1/2 240/1/2
f 226/5/2 227/5/2 244/5/2
f 227/1/2 236/1/2 245/1/2
f 244/5/2 227/5/2 245/5/2
f 236/1/2 237/1/2 245/1/2
f 245/1/2 237/1/2 246/1/2
f 237/2/2 238/2/2 247/2/2
f 246/1/2 237/1/2 247/1/2
f 238/1/2 239/1/2 248/1/2
f 247/2/2 238/2/2 248/2/2
f 245/2/2 246/2/2 249/2/2
f 244/2/2 245/2/2 249/2/2
f 246/1/2 247/1/2 250/1/2
f 249/2/2 246/2/2 250/2/2
f 247/3/2 248/3/2 251/3/2
f 250/1/2 247/1/2 251/1/2
f 248/1/2 239/1/2 252/1/2
f 251/3/2 248/3/2 252/3/2
f 239/2/2 221/2/2 253/2/2
f 252/1/2 239/1/2 253/1/2
f 221/1/2 240/1/2 254/1/2
f 253/2/2 221/2/2 254/2/2
f 240/6/2 241/6/2 255/6/2
f 254/1/2 240/1/2 255/1/2
f 241/2/2 242/2/2 256/2/2
f 255/6/2 241/6/2 256/6/2
f 242/6/2 243/6/2 257/6/2
f 256/2/2 242/2/2 257/2/2
f 257/6/2 243/6/2 258/6/2
f 259/6/2 260/6/2 261/6/2
f 261/6/2 260/6/2 262/6/2
f 263/3/2 264/3/2 273/3/2
f 264/1/2 265/1/2 274/1/2
f 273/3/2 264/3/2 274/3/2
f 265/3/2 266/3/2 275/3/2
f 274/1/2 265/1/2 275/1/2
f 266/1/2 267/1/2 276/1/2
f 275/3/2 266/3/2 276/3/2
f 267/2/2 268/2/2 277/2/2
f 276/1/2 267/1/2 277/1/2
f 268/1/2 269/1/2 278/1/2
f 277/2/2 268/2/2 278/2/2
f 269/6/2 270/6/2 279/6/2
f 278/1/2 269/1/2 279/1/2
f 270/2/2 271/2/2 280/2/2
f 279/6/2 270/6/2 280/6/2
f 271/6/2 272/6/2 281/6/2
f 280/2/2 271/2/2 281/2/2
f 281/6/2 272/6/2 282/6/2
f 287/2/3 284/2/3 283/2/3
f 288/5/3 285/5/3 284/5/3
f 288/2/3 284/2/3 287/2/3
f 289/2/3 286/2/3 285/2/3
f 289/5/3 285/5/3 288/5/3
f 290/2/3 286/2/3 289/2/3
f 291/1/3 288/1/3 287/1/3
f 292/5/3 289/5/3 288/5/3
f 292/1/3 288/1/3 291/1/3
f 293/1/3 290/1/3 289/1/3
f 293/5/3 289/5/3 292/5/3
f 294/1/3 290/1/3 293/1/3
f 295/2/3 292/2/3 291/2/3
f 296/5/3 293/5/3 292/5/3
f 296/2/3 292/2/3 295/2/3
f 297/2/3 294/2/3 293/2/3
f 297/5/3 293/5/3 296/5/3
f 298/2/3 294/2/3 297/2/3
f 301/3/3 300/3/3 299/3/3
f 302/3/3 300/3/3 301/3/3
f 305/3/3 304/3/3 303/3/3
f 306/3/3 304/3/3 305/3/3
f 309/1/3 308/1/3 307/1/3
f 310/1/3 308/1/3 309/1/3
f 313/1/3 312/1/3 311/1/3
f 314/1/3 312/1/3 313/1/3
f 317/2/3 316/2/3 315/2/3
f 318/2/3 316/2/3 317/2/3
f 319/2/3 317/2/3 315/2/3
f 320/2/3 317/2/3 319/2/3
f 321/1/3 320/1/3 319/1/3
f 322/1/3 320/1/3 321/1/3
f 323/2/3 322/2/3 321/2/3
f 324/2/3 322/2/3 323/2/3
f 325/1/3 324/1/3 323/1/3
f 326/1/3 324/1/3 325/1/3
f 327/2/3 326/2/3 325/2/3
f 329/2/3 327/2/3 325/2/3
f 329/2/3 328/2/3 327/2/3
f 330/2/3 328/2/3 329/2/3
f 333/2/3 332/2/3 331/2/3
f 334/2/3 332/2/3 333/2/3
f 337/2/3 336/2/3 335/2/3
f 338/2/3 336/2/3 337/2/3
f 341/1/3 340/1/3 339/1/3
f 342/1/3 340/1/3 341/1/3
f 345/1/3 344/1/3 343/1/3
f 346/1/3 344/1/3 345/1/3
f 349/6/3 348/6/3 347/6/3
f 350/6/3 348/6/3 349/6/3
f 353/6/3 352/6/3 351/6/3
f 354/6/3 352/6/3 353/6/3
f 355/1/4 356/1/4 357/1/4
f 357/1/4 356/1/4 358/1/4
f 359/1/4 360/1/4 361/1/4
f 361/1/4 360/1/4 362/1/4
f 363/4/4 364/4/4 365/4/4
f 365/4/4 364/4/4 366/4/4
f 367/4/4 368/4/4 369/4/4
f 369/4/4 368/4/4 370/4/4
f 371/4/4 372/4/4 373/4/4
f 373/4/4 372/4/4 374/4/4
f 375/6/4 376/6/4 377/6/4
f 377/6/4 376/6/4 378/6/4
f 375/6/4 377/6/4 379/6/4
f 378/6/4 376/6/4 380/6/4
f 375/6/4 379/6/4 381/6/4
f 379/6/4 380/6/4 381/6/4
f 381/6/4 380/6/4 382/6/4
f 380/6/4 376/6/4 383/6/4
f 382/6/4 380/6/4 383/6/4
f 383/6/4 376/6/4 384/6/4
f 382/6/4 383/6/4 386/6/4
f 386/6/4 383/6/4 387/6/4
f 386/6/4 387/6/4 389/6/4
f 387/6/4 388/6/4 389/6/4
f 385/6/4 386/6/4 389/6/4
f 389/6/4 388/6/4 390/6/4
f 390/6/4 388/6/4 391/6/4
f 391/6/4 392/6/4 393/6/4
f 390/6/4 391/6/4 393/6/4
f 393/6/4 392/6/4 394/6/4
f 390/6/4 393/6/4 395/6/4
f 385/6/4 389/6/4 397/6/4
f 395/6/4 396/6/4 398/6/4
f 390/6/4 395/6/4 398/6/4
f 398/6/4 396/6/4 399/6/4
f 399/6/4 396/6/4 400/6/4
f 385/6/4 397/6/4 401/6/4
f 397/6/4 398/6/4 401/6/4
f 398/6/4 399/6/4 401/6/4
f 401/6/4 399/6/4 402/6/4
f 402/6/4 399/6/4 403/6/4
f 403/6/4 399/6/4 404/6/4
f 402/6/4 403/6/4 406/6/4
f 406/6/4 403/6/4 407/6/4
f 405/6/4 406/6/4 409/6/4
f 407/6/4 408/6/4 409/6/4
f 406/6/4 407/6/4 409/6/4
f 409/6/4 408/6/4 410/6/4
f 405/6/4 409/6/4 411/6/4
f 410/6/4 408/6/4 412/6/4
f 405/6/4 411/6/4 413/6/4
f 411/6/4 412/6/4 413/6/4
f 412/6/4 408/6/4 414/6/4
f 413/6/4 412/6/4 414/6/4
f 423/3/5 420/3/5 419/3/5
f 424/3/5 420/3/5 423/3/5
f 425/2/5 416/2/5 415/2/5
f 426/1/5 417/1/5 416/1/5
f 426/2/5 416/2/5 425/2/5
f 427/2/5 418/2/5 417/2/5
f 427/1/5 417/1/5 426/1/5
f 428/2/5 418/2/5 427/2/5
f 429/3/5 422/3/5 421/3/5
f 430/3/5 422/3/5 429/3/5
f 431/1/5 424/1/5 423/1/5
f 432/1/5 424/1/5 431/1/5
f 433/1/5 426/1/5 425/1/5
f 433/1/5 428/1/5 427/1/5
f 433/1/5 427/1/5 426/1/5
f 434/1/5 428/1/5 433/1/5
f 435/1/5 430/1/5 429/1/5
f 436/1/5 430/1/5 435/1/5
f 437/3/5 432/3/5 431/3/5
f 438/3/5 432/3/5 437/3/5
f 439/3/5 434/3/5 433/3/5
f 440/3/5 434/3/5 439/3/5
f 441/3/5 436/3/5 435/3/5
f 442/3/5 436/3/5 441/3/5
f 443/1/5 438/1/5 437/1/5
f 444/1/5 438/1/5 443/1/5
f 445/1/5 440/1/5 439/1/5
f 446/1/5 440/1/5 445/1/5
f 447/1/5 442/1/5 441/1/5
f 448/1/5 442/1/5 447/1/5
f 449/2/5 444/2/5 443/2/5
f 450/2/5 444/2/5 449/2/5
f 451/2/5 446/2/5 445/2/5
f 452/2/5 446/2/5 451/2/5
f 453/2/5 448/2/5 447/2/5
f 454/2/5 448/2/5 453/2/5
f 455/1/5 450/1/5 449/1/5
f 456/1/5 450/1/5 455/1/5
f 457/1/5 452/1/5 451/1/5
f 458/1/5 452/1/5 457/1/5
f 459/1/5 454/1/5 453/1/5
f 460/1/5 454/1/5 459/1/5
f 461/6/5 456/6/5 455/6/5
f 462/6/5 456/6/5 461/6/5
f 463/6/5 458/6/5 457/6/5
f 464/6/5 458/6/5 463/6/5
f 465/6/5 460/6/5 459/6/5
f 466/6/5 460/6/5 465/6/5
f 467/2/5 462/2/5 461/2/5
f 468/2/5 462/2/5 467/2/5
f 469/2/5 464/2/5 463/2/5
f 470/2/5 464/2/5 469/2/5
f 471/2/5 466/2/5 465/2/5
f 472/2/5 466/2/5 471/2/5
f 473/6/5 468/6/5 467/6/5
f 474/6/5 468/6/5 473/6/5
f 475/6/5 470/6/5 469/6/5
f 476/6/5 470/6/5 475/6/5
f 477/6/5 472/6/5 471/6/5
f 478/6/5 472/6/5 477/6/5
f 483/1/5 480/1/5 479/1/5
f 484/1/5 480/1/5 483/1/5
f 485/1/5 482/1/5 481/1/5
f 486/1/5 482/1/5 485/1/5
f 487/3/5 484/3/5 483/3/5
f 488/3/5 484/3/5 487/3/5
f 489/3/5 486/3/5 485/3/5
f 490/3/5 486/3/5 489/3/5
f 491/1/5 488/1/5 487/1/5
f 492/1/5 488/1/5 491/1/5
f 493/1/5 490/1/5 489/1/5
f 494/1/5 490/1/5 493/1/5
f 499/6/5 496/6/5 495/6/5
f 500/6/5 496/6/5 499/6/5
f 501/6/5 498/6/5 497/6/5
f 502/6/5 498/6/5 501/6/5
f 503/2/5 500/2/5 499/2/5
f 504/2/5 500/2/5 503/2/5
f 505/2/5 502/2/5 501/2/5
f 506/2/5 502/2/5 505/2/5
f 507/6/5 504/6/5 503/6/5
f 508/6/5 504/6/5 507/6/5
f 509/6/5 506/6/5 505/6/5
f 510/6/5 506/6/5 509/6/5
f 515/6/5 512/6/5 511/6/5
f 516/6/5 512/6/5 515/6/5
f 517/6/5 514/6/5 513/6/5
f 518/6/5 514/6/5 517/6/5
f 521/6/5 520/6/5 519/6/5
f 522/6/5 520/6/5 521/6/5
f 523/6/6 524/6/6 529/6/6
f 529/6/6 524/6/6 530/6/6
f 525/6/6 526/6/6 531/6/6
f 531/6/6 526/6/6 532/6/6
f 527/6/6 528/6/6 533/6/6
f 533/6/6 528/6/6 534/6/6
f 535/1/6 536/1/6 539/1/6
f 539/1/6 536/1/6 540/1/6
f 537/1/6 538/1/6 541/1/6
f 541/1/6 538/1/6 542/1/6
f 539/3/6 540/3/6 543/3/6
f 543/3/6 540/3/6 544/3/6
f 541/3/6 542/3/6 545/3/6
f 545/3/6 542/3/6 546/3/6
f 543/1/6 544/1/6 547/1/6
f 547/1/6 544/1/6 548/1/6
f 545/1/6 546/1/6 549/1/6
f 549/1/6 546/1/6 550/1/6
f 551/6/6 552/6/6 555/6/6
f 555/6/6 552/6/6 556/6/6
f 553/6/6 554/6/6 557/6/6
f 557/6/6 554/6/6 558/6/6
f 555/2/6 556/2/6 559/2/6
f 559/2/6 556/2/6 560/2/6
f 557/2/6 558/2/6 561/2/6
f 561/2/6 558/2/6 562/2/6
f 559/6/6 560/6/6 563/6/6
f 563/6/6 560/6/6 564/6/6
f 561/6/6 562/6/6 565/6/6
f 565/6/6 562/6/6 566/6/6
f 567/3/6 568/3/6 571/3/6
f 571/3/6 568/3/6 572/3/6
f 569/3/6 570/3/6 573/3/6
f 573/3/6 570/3/6 574/3/6
f 571/1/6 572/1/6 575/1/6
f 575/1/6 572/1/6 576/1/6
f 573/1/6 574/1/6 577/1/6
f 577/1/6 574/1/6 578/1/6
f 575/3/6 576/3/6 579/3/6
f 579/3/6 576/3/6 580/3/6
f 577/3/6 578/3/6 581/3/6
f 581/3/6 578/3/6 582/3/6
f 579/1/6 580/1/6 583/1/6
f 583/1/6 580/1/6 584/1/6
f 581/1/6 582/1/6 585/1/6
f 585/1/6 582/1/6 586/1/6
f 583/2/6 584/2/6 587/2/6
f 587/2/6 584/2/6 588/2/6
f 585/2/6 586/2/6 589/2/6
f 589/2/6 586/2/6 590/2/6
f 587/1/6 588/1/6 591/1/6
f 591/1/6 588/1/6 592/1/6
f 589/1/6 590/1/6 593/1/6
f 593/1/6 590/1/6 594/1/6
f 591/6/6 592/6/6 595/6/6
f 595/6/6 592/6/6 596/6/6
f 593/6/6 594/6/6 597/6/6
f 597/6/6 594/6/6 598/6/6
f 595/2/6 596/2/6 599/2/6
f 599/2/6 596/2/6 600/2/6
f 597/2/6 598/2/6 601/2/6
f 601/2/6 598/2/6 602/2/6
f 599/6/6 600/6/6 603/6/6
f 603/6/6 600/6/6 604/6/6
f 601/6/6 602/6/6 605/6/6
f 605/6/6 602/6/6 606/6/6
f 608/1/6 609/1/6 611/1/6
f 611/1/6 609/1/6 612/1/6
f 607/2/6 608/2/6 613/2/6
f 608/1/6 611/1/6 614/1/6
f 613/2/6 608/2/6 614/2/6
f 612/1/6 609/1/6 615/1/6
f 609/2/6 610/2/6 615/2/6
f 615/2/6 610/2/6 616/2/6
f 613/1/6 614/1/6 617/1/6
f 614/1/6 611/1/6 618/1/6
f 617/1/6 614/1/6 618/1/6
f 611/3/6 612/3/6 618/3/6
f 615/1/6 616/1/6 619/1/6
f 618/3/6 612/3/6 619/3/6
f 612/1/6 615/1/6 619/1/6
f 619/1/6 616/1/6 620/1/6
f 617/3/6 618/3/6 621/3/6
f 618/3/6 619/3/6 621/3/6
f 619/3/6 620/3/6 621/3/6
f 621/3/6 620/3/6 622/3/6
f 621/1/6 622/1/6 623/1/6
f 623/1/6 622/1/6 624/1/6
f 623/2/6 624/2/6 625/2/6
f 625/2/6 624/2/6 626/2/6
f 626/2/6 624/2/6 627/2/6
f 627/2/6 624/2/6 628/2/6
f 628/2/6 624/2/6 629/2/6
f 629/2/6 624/2/6 630/2/6
f 623/2/6 625/2/6 631/2/6
f 631/2/6 625/2/6 632/2/6
f 630/2/6 624/2/6 633/2/6
f 633/2/6 624/2/6 634/2/6
f 631/1/6 632/1/6 635/1/6
f 635/1/6 632/1/6 636/1/6
f 633/1/6 634/1/6 637/1/6
f 637/1/6 634/1/6 638/1/6
f 635/6/6 636/6/6 639/6/6
f 639/6/6 636/6/6 640/6/6
f 637/6/6 638/6/6 641/6/6
f 641/6/6 638/6/6 642/6/6
f 639/2/6 640/2/6 643/2/6
f 643/2/6 640/2/6 644/2/6
f 641/2/6 642/2/6 645/2/6
f 645/2/6 642/2/6 646/2/6
f 643/6/6 644/6/6 647/6/6
f 647/6/6 644/6/6 648/6/6
f 645/6/6 646/6/6 649/6/6
f 649/6/6 646/6/6 650/6/6
f 651/2/6 652/2/6 657/2/6
f 655/2/6 656/2/6 658/2/6
f 657/2/6 652/2/6 659/2/6
f 652/1/6 653/1/6 660/1/6
f 659/2/6 652/2/6 660/2/6
f 653/2/6 654/2/6 661/2/6
f 660/1/6 653/1/6 661/1/6
f 654/1/6 655/1/6 662/1/6
f 661/2/6 654/2/6 662/2/6
f 655/2/6 658/2/6 663/2/6
f 662/1/6 655/1/6 663/1/6
f 663/2/6 658/2/6 664/2/6
f 659/6/6 660/6/6 665/6/6
f 660/6/6 661/6/6 665/6/6
f 663/6/6 664/6/6 665/6/6
f 662/6/6 663/6/6 665/6/6
f 661/6/6 662/6/6 665/6/6
f 665/6/6 664/6/6 666/6/6
f 665/2/6 666/2/6 667/2/6
f 667/2/6 666/2/6 668/2/6
f 667/6/6 668/6/6 669/6/6
f 669/6/6 668/6/6 670/6/6
f 671/2/6 672/2/6 675/2/6
f 675/2/6 672/2/6 676/2/6
f 673/2/6 674/2/6 677/2/6
f 677/2/6 674/2/6 678/2/6
f 679/2/6 680/2/6 683/2/6
f 683/2/6 680/2/6 684/2/6
f 681/2/6 682/2/6 685/2/6
f 685/2/6 682/2/6 686/2/6
f 687/1/6 688/1/6 691/1/6
f 691/1/6 688/1/6 692/1/6
f 689/1/6 690/1/6 693/1/6
f 693/1/6 690/1/6 694/1/6
f 691/6/6 692/6/6 695/6/6
f 695/6/6 692/6/6 696/6/6
f 693/6/6 694/6/6 697/6/6
f 697/6/6 694/6/6 698/6/6
f 695/2/6 696/2/6 699/2/6
f 699/2/6 696/2/6 700/2/6
f 697/2/6 698/2/6 701/2/6
f 701/2/6 698/2/6 702/2/6
f 699/6/6 700/6/6 703/6/6
f 703/6/6 700/6/6 704/6/6
f 701/6/6 702/6/6 705/6/6
f 705/6/6 702/6/6 706/6/6
